<svg xmlns="http://www.w3.org/2000/svg" viewBox="0 0 1200 800" role="img" aria-label="Radio tower silhouette">
  <defs>
    <linearGradient id="g" x1="0" x2="1" y1="0" y2="1">
      <stop offset="0" stop-color="#1b1033"/>
      <stop offset=".55" stop-color="#351042"/>
      <stop offset="1" stop-color="#090b15"/>
    </linearGradient>
    <radialGradient id="glow" cx="55%" cy="30%" r="55%">
      <stop offset="0" stop-color="#ff7a18" stop-opacity=".9"/>
      <stop offset=".34" stop-color="#d62b18" stop-opacity=".35"/>
      <stop offset="1" stop-color="#000" stop-opacity="0"/>
    </radialGradient>
  </defs>
  <rect width="1200" height="800" fill="url(#g)"/>
  <rect width="1200" height="800" fill="url(#glow)"/>
  <g stroke="#ffb15c" stroke-width="6" stroke-linecap="round" opacity=".38" fill="none">
    <path d="M600 72 C510 130 510 220 600 278 C690 220 690 130 600 72Z"/>
    <path d="M600 115 C546 152 546 207 600 244 C654 207 654 152 600 115Z"/>
    <path d="M600 162 C575 182 575 212 600 232 C625 212 625 182 600 162Z"/>
  </g>
  <g stroke="#f9e7c8" stroke-width="7" stroke-linejoin="round" fill="none" opacity=".78">
    <path d="M600 210 L450 760 L750 760 Z"/>
    <path d="M600 210 L600 760"/>
    <path d="M535 450 H665"/>
    <path d="M498 585 H702"/>
    <path d="M555 320 H645"/>
    <path d="M600 210 L535 450 L702 585 L600 760"/>
    <path d="M600 210 L665 450 L498 585 L600 760"/>
    <path d="M600 120 V210"/>
    <path d="M530 142 H670"/>
    <path d="M560 92 H640"/>
  </g>
  <path d="M0 680 C180 620 320 690 520 655 C740 615 860 700 1200 635 V800 H0Z" fill="#05060b" opacity=".8"/>
</svg>
