<svg xmlns="http://www.w3.org/2000/svg" viewBox="0 0 1600 760" preserveAspectRatio="none">
<defs><linearGradient id="sky" x1="0" x2="0" y1="0" y2="1"><stop stop-color="#3154a4" offset="0"/><stop stop-color="#1d397a" offset=".38"/><stop stop-color="#132854" offset=".68"/><stop stop-color="#071224" offset="1"/></linearGradient><radialGradient id="sun" cx="78%" cy="47%" r="48%"><stop stop-color="#ff965a" stop-opacity=".85"/><stop offset=".38" stop-color="#eb5d48" stop-opacity=".32"/><stop offset=".72" stop-color="#2d6bef" stop-opacity=".18"/><stop offset="1" stop-color="#071224" stop-opacity="0"/></radialGradient><linearGradient id="glow" x1="0" x2="1"><stop stop-color="#4ea2ff" stop-opacity=".65"/><stop offset="1" stop-color="#ffe6b2" stop-opacity=".7"/></linearGradient></defs>
<rect width="1600" height="760" fill="url(#sky)"/><rect width="1600" height="760" fill="url(#sun)"/>
<g opacity=".55"><ellipse cx="770" cy="355" rx="340" ry="54" fill="#ff9a4a" opacity=".14"/><path d="M0 500 C160 465 260 478 398 451 C565 418 780 425 926 445 C1130 474 1320 462 1600 428 L1600 760 L0 760z" fill="#0b1630" opacity=".32"/></g>
<g fill="#172a4f" opacity=".7"><path d="M0 650h75v-76h38v-120h86v196h36v-50h50v50h54V520h77v130h45V385h95v265h34v-80h58v80h42V478h82v172h38V350h102v300h45V530h60v120h64V445h92v205h35V312h58v338h42v-88h78v88h58V505h122v145h214v110H0z"/></g>
<g fill="#03070e"><path d="M0 676h86v-82h44V468h78v208h38v-48h53v48h58V538h78v138h49V405h88v271h37v-86h63v86h39V490h85v186h47V365h96v311h48V548h60v128h65V462h86v214h45V330h60v346h45v-94h84v94h63V515h126v161h215v84H0z"/></g>
<g fill="#ffd07a" opacity=".9"><rect x="535" y="510" width="6" height="5"/><rect x="558" y="522" width="6" height="4"/><rect x="810" y="560" width="7" height="4"/><rect x="1090" y="535" width="7" height="4"/><rect x="1185" y="572" width="7" height="4"/><rect x="1320" y="604" width="7" height="4"/><rect x="1420" y="586" width="7" height="4"/><rect x="101" y="604" width="6" height="4"/><rect x="401" y="596" width="6" height="4"/></g><rect y="688" width="1600" height="2" fill="url(#glow)" opacity=".5"/></svg>