<svg xmlns="http://www.w3.org/2000/svg" viewBox="0 0 1600 700" preserveAspectRatio="none"><defs><linearGradient id="g" x1="0" x2="0" y1="0" y2="1"><stop stop-color="#173b88" offset="0"/><stop stop-color="#08172f" offset=".55"/><stop stop-color="#02050a" offset="1"/></linearGradient><radialGradient id="sun" cx="72%" cy="42%" r="45%"><stop stop-color="#ff7a34" stop-opacity=".7"/><stop offset=".55" stop-color="#2649af" stop-opacity=".25"/><stop offset="1" stop-color="#02050a" stop-opacity="0"/></radialGradient></defs><rect width="1600" height="700" fill="url(#g)"/><rect width="1600" height="700" fill="url(#sun)"/><g fill="#fff" opacity=".12"><circle cx="300" cy="160" r="2"/><circle cx="510" cy="100" r="2"/><circle cx="1220" cy="190" r="2"/><circle cx="920" cy="80" r="2"/></g><g fill="#02060d"><path d="M0 570h80v-60h44v-95h70v155h34v-42h50v42h54v-120h72v120h50v-210h82v210h36v-65h55v65h38v-145h74v145h44v-250h92v250h40v-98h54v98h56v-175h80v175h42v-270h62v270h40v-82h72v82h53v-125h112v125h280v130H0z"/></g><g fill="#0b7cff" opacity=".22"><rect x="0" y="640" width="1600" height="2"/><rect x="0" y="608" width="1600" height="1"/></g></svg>